<svg xmlns="http://www.w3.org/2000/svg" width="96" height="96" viewBox="0 0 96 96">
  <!-- 泥金藤蔓角饰（rinceaux）：右上角，由左角饰水平镜像生成 -->
  <defs>
    <linearGradient id="gold" x1="0" y1="0" x2="1" y2="1">
      <stop offset="0" stop-color="#e8cc82"/>
      <stop offset="0.55" stop-color="#c9a558"/>
      <stop offset="1" stop-color="#8a6d34"/>
    </linearGradient>
  </defs>
  <g transform="matrix(-1 0 0 1 96 0)">
    <g fill="none" stroke="url(#gold)" stroke-linecap="round">
      <path d="M16 96 L16 34 A18 18 0 0 1 34 16 L96 16" stroke-width="2.4"/>
      <path d="M24 96 L24 40 A16 16 0 0 1 40 24 L96 24" stroke-width="1" stroke-opacity="0.75"/>
      <path d="M48 16 C 58 8 72 8 78 14 C 82 18 79 24 74 23 C 70 22 70 17 74 16" stroke-width="1.6"/>
      <path d="M16 48 C 8 58 8 72 14 78 C 18 82 24 79 23 74 C 22 70 17 70 16 74" stroke-width="1.6"/>
    </g>
    <path d="M16 16 C 25 18 31 25 31 34 C 22 32 17 25 16 16 Z" fill="url(#gold)"/>
    <circle cx="88" cy="16" r="1.5" fill="#e8cc82"/>
    <circle cx="16" cy="88" r="1.5" fill="#e8cc82"/>
  </g>
</svg>
