<svg xmlns="http://www.w3.org/2000/svg" viewBox="0 0 1600 1000" role="img" aria-label="抽象星图纹理">
  <defs>
    <radialGradient id="halo" cx="50%" cy="50%" r="50%">
      <stop offset="0" stop-color="#76e1d0" stop-opacity=".16"/>
      <stop offset=".52" stop-color="#4c70b5" stop-opacity=".06"/>
      <stop offset="1" stop-color="#08101a" stop-opacity="0"/>
    </radialGradient>
    <pattern id="stars" width="96" height="96" patternUnits="userSpaceOnUse">
      <circle cx="11" cy="17" r="1.2" fill="#d8fff7" opacity=".46"/>
      <circle cx="61" cy="28" r=".8" fill="#f5ca75" opacity=".38"/>
      <circle cx="83" cy="76" r="1" fill="#9be6db" opacity=".3"/>
      <circle cx="32" cy="68" r=".55" fill="#ffffff" opacity=".32"/>
    </pattern>
  </defs>
  <rect width="1600" height="1000" fill="url(#stars)"/>
  <ellipse cx="800" cy="500" rx="610" ry="380" fill="url(#halo)"/>
  <g fill="none" stroke="#76e1d0" stroke-opacity=".12">
    <circle cx="800" cy="500" r="142"/>
    <circle cx="800" cy="500" r="276"/>
    <circle cx="800" cy="500" r="410"/>
    <ellipse cx="800" cy="500" rx="590" ry="212" transform="rotate(-18 800 500)"/>
    <path d="M110 770 356 640 518 710 712 432 902 510 1090 262 1482 174"/>
    <path d="M174 210 410 340 612 246 828 366 1034 318 1226 504 1460 438"/>
  </g>
  <g fill="#f5ca75" opacity=".48">
    <circle cx="356" cy="640" r="3.2"/>
    <circle cx="712" cy="432" r="2.4"/>
    <circle cx="1090" cy="262" r="3.4"/>
    <circle cx="410" cy="340" r="2.5"/>
    <circle cx="828" cy="366" r="2.8"/>
    <circle cx="1226" cy="504" r="3.1"/>
  </g>
  <g stroke="#f5ca75" stroke-opacity=".16">
    <path d="M800 40v78M800 882v78M340 500h-78M1338 500h-78"/>
    <path d="m800 78 8 24-8 16-8-16zM800 922l8-24-8-16-8 16z" fill="none"/>
  </g>
</svg>
