<svg xmlns="http://www.w3.org/2000/svg" viewBox="0 0 1440 320">
  <path d="M0,236 L120,148 L260,230 L380,118 L520,224 L660,166 L800,238 L960,106 L1120,222 L1280,158 L1440,230 L1440,320 L0,320 Z" fill="#29251d" fill-opacity="0.045"/>
  <path d="M0,266 L180,194 L340,260 L520,186 L700,264 L900,198 L1100,268 L1260,212 L1440,260 L1440,320 L0,320 Z" fill="#29251d" fill-opacity="0.06"/>
  <path d="M0,290 L220,246 L430,286 L640,240 L860,288 L1080,250 L1290,286 L1440,254 L1440,320 L0,320 Z" fill="#3c5a49" fill-opacity="0.05"/>
</svg>
