<svg xmlns="http://www.w3.org/2000/svg" width="720" height="720" viewBox="0 0 720 720" fill="none">
  <defs>
    <linearGradient id="beamA" x1="0" y1="0" x2="1" y2="1">
      <stop offset="0%" stop-color="#7ec8d8" stop-opacity="0.22"/>
      <stop offset="55%" stop-color="#f0a27a" stop-opacity="0.12"/>
      <stop offset="100%" stop-color="#c9b6e4" stop-opacity="0.08"/>
    </linearGradient>
    <linearGradient id="beamB" x1="1" y1="0" x2="0" y2="1">
      <stop offset="0%" stop-color="#8fd0bc" stop-opacity="0.16"/>
      <stop offset="100%" stop-color="#e8b86d" stop-opacity="0.08"/>
    </linearGradient>
  </defs>
  <rect width="720" height="720" fill="transparent"/>
  <g stroke="#6fa8b8" stroke-opacity="0.18" stroke-width="1">
    <path d="M40 120 L260 40 L480 140 L680 70"/>
    <path d="M20 280 L220 220 L420 320 L640 240 L700 300"/>
    <path d="M60 460 L280 380 L500 480 L700 420"/>
    <path d="M30 620 L250 540 L470 640 L690 560"/>
    <path d="M120 40 L180 220 L140 420 L200 640"/>
    <path d="M300 20 L340 240 L300 460 L360 700"/>
    <path d="M480 50 L520 260 L480 480 L540 700"/>
    <path d="M640 30 L680 250 L640 470 L700 690"/>
  </g>
  <g fill="url(#beamA)">
    <polygon points="180,90 280,140 240,220 150,180"/>
    <polygon points="420,200 520,160 560,250 470,280"/>
    <polygon points="260,360 360,330 390,420 280,450"/>
  </g>
  <g fill="url(#beamB)">
    <polygon points="500,360 600,400 560,500 470,450"/>
    <polygon points="140,500 230,470 270,560 170,590"/>
  </g>
  <g stroke="#e07a5f" stroke-opacity="0.14" stroke-width="1.2">
    <path d="M90 180 L190 260 L130 340"/>
    <path d="M430 120 L530 200 L470 290"/>
    <path d="M310 430 L410 510 L350 600"/>
  </g>
  <circle cx="360" cy="360" r="3.5" fill="#3d8b9a" fill-opacity="0.28"/>
  <circle cx="210" cy="170" r="2.5" fill="#e07a5f" fill-opacity="0.22"/>
  <circle cx="520" cy="430" r="2.5" fill="#8fd0bc" fill-opacity="0.25"/>
</svg>
