<svg xmlns="http://www.w3.org/2000/svg" viewBox="0 0 31.68 35.29">
  <!-- 领域纹章·支柱 PILLAR:几何源自 docs/pbdh/粥/图标PNG及SVG/资源 10.svg;SMIL 内置入场淡入+有限循环×2(依领域图标动画规范,循环不用 infinite)。 -->
  <g>
    <animateTransform attributeName="transform" type="translate" values="0 0;0 -0.8;0 0" keyTimes="0;0.5;1" begin="0.8s" dur="3.5s" repeatCount="2" calcMode="spline" keySplines="0.42 0 0.58 1;0.42 0 0.58 1"/>
    <animate attributeName="opacity" values="1;0.95;1" keyTimes="0;0.5;1" begin="0.8s" dur="3.5s" repeatCount="2" calcMode="spline" keySplines="0.42 0 0.58 1;0.42 0 0.58 1"/>
    <g opacity="0">
      <animate attributeName="opacity" from="0" to="1" begin="0.15s" dur="0.4s" calcMode="spline" keySplines="0.25 0.46 0.45 0.94" fill="freeze"/>
      <g fill="#63bfd1" opacity="0.08">
        <polygon points="15.84 3.55 19.55 1.72 19.55 1.71 19.45 1.71 17.65 .88 15.75 0 13.85 .88 12.08 1.7 15.84 3.55"/>
        <polygon points="11.95 2.85 11.95 8.43 2.22 3.64 0 6.91 11.4 12.52 3.97 16.18 3.97 20.54 11.95 16.61 11.95 33.86 12.05 33.86 13.85 34.69 15.15 35.29 15.15 4.42 11.95 2.85"/>
        <polygon points="31.68 6.91 29.46 3.64 19.55 8.51 19.55 2.94 16.53 4.42 16.53 35.21 17.65 34.69 19.45 33.86 19.55 33.86 19.55 16.53 27.71 20.54 27.71 16.18 20.28 12.52 31.68 6.91"/>
      </g>
    </g>
  </g>
</svg>
