<svg xmlns="http://www.w3.org/2000/svg" viewBox="-7.5 -6.9 57.86 53.21">
  <!-- 领域纹章·精准 PRECISION:几何源自 docs/pbdh/粥/图标PNG及SVG/资源 9.svg;SMIL 内置入场淡入+无限循环,依领域图标动画规范。 -->
  <defs>
    <filter id="ak-ring-halo">
      <feMorphology in="SourceGraphic" operator="dilate" radius="0.2" result="dilated"/>
      <feComposite in="dilated" in2="SourceGraphic" operator="out"/>
    </filter>
  </defs>
  <!-- ak-ring 光环:0.05s 起 0.6s ease-out 扩散淡出(scale 1→1.35, opacity 1→0),feMorphology 融合多形状后描边 -->
  <g transform="translate(21.43 19.7)">
    <g>
      <animateTransform attributeName="transform" type="scale" from="1" to="1.35" begin="0.05s" dur="0.6s" calcMode="spline" keySplines="0.25 0.46 0.45 0.94" fill="freeze"/>
      <animate attributeName="opacity" from="1" to="0" begin="0.05s" dur="0.6s" calcMode="spline" keySplines="0.25 0.46 0.45 0.94" fill="freeze"/>
      <g transform="translate(-21.43 -19.7)" fill="#63bfd1" filter="url(#ak-ring-halo)">
        <polygon points="21.43 0 26.92 4.6 32.41 9.2 21.43 5.16 10.46 9.2 15.94 4.6 21.43 0"/>
        <polygon points="21.43 6.85 32.15 10.64 42.86 15.25 21.42 12.33 0 15.25 10.72 10.64 21.43 6.85"/>
        <polygon points="21.54 39.41 19.54 24.95 17.54 10.49 21.54 9.09 25.53 10.49 23.54 24.95 21.54 39.41"/>
        <polygon points="20.86 12.41 5.96 24.94 21.54 22.72 14.58 21.13 20.86 12.41"/>
        <polygon points="22.1 12.41 37.01 24.94 21.54 22.72 28.39 21.13 22.1 12.41"/>
      </g>
    </g>
  </g>
  <!-- ak-starburst 实体:0.15s 起 0.4s ease-out 淡入;0.8s 起 divineFloat 3.5s indefinite(translateY 0↔-0.8, scale 1↔1.015, opacity 1↔0.95) -->
  <g transform="translate(0 0.8)">
    <g>
      <animateTransform attributeName="transform" type="translate" values="0 0;0 -1.6;0 0" keyTimes="0;0.5;1" begin="0.8s" dur="3.5s" repeatCount="indefinite" calcMode="spline" keySplines="0.42 0 0.58 1;0.42 0 0.58 1"/>
      <animate attributeName="opacity" values="0.7;1;0.7" keyTimes="0;0.5;1" begin="0.8s" dur="3.5s" repeatCount="indefinite" calcMode="spline" keySplines="0.42 0 0.58 1;0.42 0 0.58 1"/>
      <g opacity="0">
        <animate attributeName="opacity" from="0" to="1" begin="0.15s" dur="0.4s" calcMode="spline" keySplines="0.25 0.46 0.45 0.94" fill="freeze"/>
        <g fill="#63bfd1" opacity="0.08">
          <polygon points="21.43 0 26.92 4.6 32.41 9.2 21.43 5.16 10.46 9.2 15.94 4.6 21.43 0"/>
          <polygon points="21.43 6.85 32.15 10.64 42.86 15.25 21.42 12.33 0 15.25 10.72 10.64 21.43 6.85"/>
          <polygon points="21.54 39.41 19.54 24.95 17.54 10.49 21.54 9.09 25.53 10.49 23.54 24.95 21.54 39.41"/>
          <polygon points="20.86 12.41 5.96 24.94 21.54 22.72 14.58 21.13 20.86 12.41"/>
          <polygon points="22.1 12.41 37.01 24.94 21.54 22.72 28.39 21.13 22.1 12.41"/>
        </g>
      </g>
    </g>
  </g>
</svg>
