<svg xmlns="http://www.w3.org/2000/svg" viewBox="-7.37 -5.58 56.88 43.07">
  <!-- 领域纹章·心界 MINDSPHERE:几何源自 docs/pbdh/粥/图标PNG及SVG/资源 13.svg;SMIL 内置入场淡入+无限循环,依领域图标动画规范。 -->
  <defs>
    <filter id="ak-ring-halo">
      <feMorphology in="SourceGraphic" operator="dilate" radius="0.2" result="dilated"/>
      <feComposite in="dilated" in2="SourceGraphic" operator="out"/>
    </filter>
  </defs>
  <!-- ak-ring 光环:0.05s 起 0.6s ease-out 扩散淡出(scale 1→1.35, opacity 1→0),feMorphology 融合多形状后描边 -->
  <g transform="translate(21.07 15.96)">
    <g>
      <animateTransform attributeName="transform" type="scale" from="1" to="1.35" begin="0.05s" dur="0.6s" calcMode="spline" keySplines="0.25 0.46 0.45 0.94" fill="freeze"/>
      <animate attributeName="opacity" from="1" to="0" begin="0.05s" dur="0.6s" calcMode="spline" keySplines="0.25 0.46 0.45 0.94" fill="freeze"/>
      <g transform="translate(-21.07 -15.96)" fill="#63bfd1" filter="url(#ak-ring-halo)">
        <polygon points="21.07 21.89 24.99 17.93 28.91 13.98 21.07 13.98 13.23 13.98 17.15 17.93 21.07 21.89"/>
        <polygon points="24.99 10.02 23.03 12 21.07 13.98 24.99 13.98 28.91 13.98 26.95 12 24.99 10.02"/>
        <polygon points="17.15 10.02 15.19 12 13.23 13.98 17.15 13.98 21.07 13.98 19.11 12 17.15 10.02"/>
        <polygon points="36.87 5.32 31.61 0 26.34 5.32 25.37 6.29 33 13.92 21.07 25.85 9.14 13.92 16.77 6.29 15.8 5.32 10.54 0 5.27 5.32 0 10.64 10.54 21.28 21.07 31.91 31.61 21.28 42.14 10.64 42.14 10.64 36.87 5.32"/>
        <polygon points="25.37 6.29 21.07 1.99 16.77 6.29 21.07 10.64 25.37 6.29"/>
      </g>
    </g>
  </g>
  <!-- ak-starburst 实体:0.15s 起 0.4s ease-out 淡入;0.8s 起 divineFloat 3.5s indefinite(translateY 0↔-0.8, scale 1↔1.015, opacity 1↔0.95) -->
  <g transform="translate(0 0.8)">
    <g>
      <animateTransform attributeName="transform" type="translate" values="0 0;0 -1.6;0 0" keyTimes="0;0.5;1" begin="0.8s" dur="3.5s" repeatCount="indefinite" calcMode="spline" keySplines="0.42 0 0.58 1;0.42 0 0.58 1"/>
      <animate attributeName="opacity" values="0.7;1;0.7" keyTimes="0;0.5;1" begin="0.8s" dur="3.5s" repeatCount="indefinite" calcMode="spline" keySplines="0.42 0 0.58 1;0.42 0 0.58 1"/>
      <g opacity="0">
        <animate attributeName="opacity" from="0" to="1" begin="0.15s" dur="0.4s" calcMode="spline" keySplines="0.25 0.46 0.45 0.94" fill="freeze"/>
        <g fill="#63bfd1" opacity="0.08">
          <polygon points="21.07 21.89 24.99 17.93 28.91 13.98 21.07 13.98 13.23 13.98 17.15 17.93 21.07 21.89"/>
          <polygon points="24.99 10.02 23.03 12 21.07 13.98 24.99 13.98 28.91 13.98 26.95 12 24.99 10.02"/>
          <polygon points="17.15 10.02 15.19 12 13.23 13.98 17.15 13.98 21.07 13.98 19.11 12 17.15 10.02"/>
          <polygon points="36.87 5.32 31.61 0 26.34 5.32 25.37 6.29 33 13.92 21.07 25.85 9.14 13.92 16.77 6.29 15.8 5.32 10.54 0 5.27 5.32 0 10.64 10.54 21.28 21.07 31.91 31.61 21.28 42.14 10.64 42.14 10.64 36.87 5.32"/>
          <polygon points="25.37 6.29 21.07 1.99 16.77 6.29 21.07 10.64 25.37 6.29"/>
        </g>
      </g>
    </g>
  </g>
</svg>
