<svg xmlns="http://www.w3.org/2000/svg" viewBox="-5.54 -6.18 42.76 47.65">
  <!-- 领域纹章·支柱 PILLAR:几何源自 docs/pbdh/粥/图标PNG及SVG/资源 10.svg;SMIL 内置入场淡入+无限循环,依领域图标动画规范。 -->
  <defs>
    <filter id="ak-ring-halo">
      <feMorphology in="SourceGraphic" operator="dilate" radius="0.2" result="dilated"/>
      <feComposite in="dilated" in2="SourceGraphic" operator="out"/>
    </filter>
  </defs>
  <!-- ak-ring 光环:0.05s 起 0.6s ease-out 扩散淡出(scale 1→1.35, opacity 1→0),feMorphology 融合多形状后描边 -->
  <g transform="translate(15.84 17.64)">
    <g>
      <animateTransform attributeName="transform" type="scale" from="1" to="1.35" begin="0.05s" dur="0.6s" calcMode="spline" keySplines="0.25 0.46 0.45 0.94" fill="freeze"/>
      <animate attributeName="opacity" from="1" to="0" begin="0.05s" dur="0.6s" calcMode="spline" keySplines="0.25 0.46 0.45 0.94" fill="freeze"/>
      <g transform="translate(-15.84 -17.64)" fill="#63bfd1" filter="url(#ak-ring-halo)">
        <polygon points="15.84 3.55 19.55 1.72 19.55 1.71 19.45 1.71 17.65 .88 15.75 0 13.85 .88 12.08 1.7 15.84 3.55"/>
        <polygon points="11.95 2.85 11.95 8.43 2.22 3.64 0 6.91 11.4 12.52 3.97 16.18 3.97 20.54 11.95 16.61 11.95 33.86 12.05 33.86 13.85 34.69 15.15 35.29 15.15 4.42 11.95 2.85"/>
        <polygon points="31.68 6.91 29.46 3.64 19.55 8.51 19.55 2.94 16.53 4.42 16.53 35.21 17.65 34.69 19.45 33.86 19.55 33.86 19.55 16.53 27.71 20.54 27.71 16.18 20.28 12.52 31.68 6.91"/>
      </g>
    </g>
  </g>
  <!-- ak-starburst 实体:0.15s 起 0.4s ease-out 淡入;0.8s 起 divineFloat 3.5s indefinite(translateY 0↔-0.8, scale 1↔1.015, opacity 1↔0.95) -->
  <g transform="translate(0 0.8)">
    <g>
      <animateTransform attributeName="transform" type="translate" values="0 0;0 -1.6;0 0" keyTimes="0;0.5;1" begin="0.8s" dur="3.5s" repeatCount="indefinite" calcMode="spline" keySplines="0.42 0 0.58 1;0.42 0 0.58 1"/>
      <animate attributeName="opacity" values="0.7;1;0.7" keyTimes="0;0.5;1" begin="0.8s" dur="3.5s" repeatCount="indefinite" calcMode="spline" keySplines="0.42 0 0.58 1;0.42 0 0.58 1"/>
      <g opacity="0">
        <animate attributeName="opacity" from="0" to="1" begin="0.15s" dur="0.4s" calcMode="spline" keySplines="0.25 0.46 0.45 0.94" fill="freeze"/>
        <g fill="#63bfd1" opacity="0.08">
          <polygon points="15.84 3.55 19.55 1.72 19.55 1.71 19.45 1.71 17.65 .88 15.75 0 13.85 .88 12.08 1.7 15.84 3.55"/>
          <polygon points="11.95 2.85 11.95 8.43 2.22 3.64 0 6.91 11.4 12.52 3.97 16.18 3.97 20.54 11.95 16.61 11.95 33.86 12.05 33.86 13.85 34.69 15.15 35.29 15.15 4.42 11.95 2.85"/>
          <polygon points="31.68 6.91 29.46 3.64 19.55 8.51 19.55 2.94 16.53 4.42 16.53 35.21 17.65 34.69 19.45 33.86 19.55 33.86 19.55 16.53 27.71 20.54 27.71 16.18 20.28 12.52 31.68 6.91"/>
        </g>
      </g>
    </g>
  </g>
</svg>
