<svg xmlns="http://www.w3.org/2000/svg" viewBox="0 0 42.14 31.91">
  <!-- 领域纹章·心界 MINDSPHERE:几何源自 docs/pbdh/粥/图标PNG及SVG/资源 13.svg;SMIL 内置入场淡入+有限循环×2(依领域图标动画规范,循环不用 infinite)。 -->
  <g>
    <animateTransform attributeName="transform" type="translate" values="0 0;0 -0.8;0 0" keyTimes="0;0.5;1" begin="0.8s" dur="3.5s" repeatCount="2" calcMode="spline" keySplines="0.42 0 0.58 1;0.42 0 0.58 1"/>
    <animate attributeName="opacity" values="1;0.95;1" keyTimes="0;0.5;1" begin="0.8s" dur="3.5s" repeatCount="2" calcMode="spline" keySplines="0.42 0 0.58 1;0.42 0 0.58 1"/>
    <g opacity="0">
      <animate attributeName="opacity" from="0" to="1" begin="0.15s" dur="0.4s" calcMode="spline" keySplines="0.25 0.46 0.45 0.94" fill="freeze"/>
      <g fill="#63bfd1" opacity="0.08">
        <polygon points="21.07 21.89 24.99 17.93 28.91 13.98 21.07 13.98 13.23 13.98 17.15 17.93 21.07 21.89"/>
        <polygon points="24.99 10.02 23.03 12 21.07 13.98 24.99 13.98 28.91 13.98 26.95 12 24.99 10.02"/>
        <polygon points="17.15 10.02 15.19 12 13.23 13.98 17.15 13.98 21.07 13.98 19.11 12 17.15 10.02"/>
        <polygon points="36.87 5.32 31.61 0 26.34 5.32 25.37 6.29 33 13.92 21.07 25.85 9.14 13.92 16.77 6.29 15.8 5.32 10.54 0 5.27 5.32 0 10.64 10.54 21.28 21.07 31.91 31.61 21.28 42.14 10.64 42.14 10.64 36.87 5.32"/>
        <polygon points="25.37 6.29 21.07 1.99 16.77 6.29 21.07 10.64 25.37 6.29"/>
      </g>
    </g>
  </g>
</svg>
