<svg xmlns="http://www.w3.org/2000/svg" viewBox="0 0 36.42 39.49">
  <!-- 领域纹章·奇迹 MIRACLE:依 docs/pbdh/粥/领域图标动画规范.md 烘焙入场与有限循环动画(循环×2 后静止)。 -->
  <!-- 皮肤 CSS 作用域处理器不支持 @keyframes,动画以 SMIL 内置;fill-opacity 保持低位,仅作卡牌桌面水印。 -->
  <!-- ak-ring 光环:0.05s 起 0.6s ease-out 扩散淡出(scale 1→1.35, opacity 1→0) -->
  <g transform="translate(18.21 19.75)">
    <g>
      <animateTransform attributeName="transform" type="scale" from="1" to="1.35" begin="0.05s" dur="0.6s" calcMode="spline" keySplines="0.25 0.46 0.45 0.94" fill="freeze"/>
      <animate attributeName="opacity" from="1" to="0" begin="0.05s" dur="0.6s" calcMode="spline" keySplines="0.25 0.46 0.45 0.94" fill="freeze"/>
      <path transform="translate(-18.21 -19.75)" fill="none" stroke="#63bfd1" stroke-width="0.4" stroke-opacity="0.3" d="m31.1,12.16l-2.91-7.6-1.77,4.62-5.3-1.59-2.91-7.6-2.91,7.6-5.3,1.59-1.77-4.62-2.91,7.6-5.32,1.6,5.32,1.6,2.91,10.95.5-1.88,5.95,1.79,3.53,13.27,3.53-13.27,5.95-1.79.5,1.88,2.91-10.95,5.32-1.6-5.32-1.6Zm-4.69-2.96l-1.13,2.96-4.91,1.48.76-2.84,5.29-1.59Zm-11.11,1.59l.76,2.84-4.91-1.48-1.13-2.96,5.29,1.59Zm-6.48,13.31l2.32-8.74,4.97-1.5.74,2.79-2.18,5.68-5.86,1.76Zm12.92-1.76l-2.18-5.68.74-2.79,4.97,1.5,2.32,8.74-5.86,1.76Z"/>
    </g>
  </g>
  <!-- ak-starburst 实体:0.15s 起 0.4s ease-out 淡入;0.8s 起 divineFloat 3.5s ×2(translateY 0↔-0.8, scale 1↔1.015, opacity 1↔0.95) -->
  <g transform="translate(18.21 19.75)">
    <g>
      <animateTransform attributeName="transform" type="translate" values="0 0;0 -0.8;0 0" keyTimes="0;0.5;1" begin="0.8s" dur="3.5s" repeatCount="2" calcMode="spline" keySplines="0.42 0 0.58 1;0.42 0 0.58 1"/>
      <g>
        <animateTransform attributeName="transform" type="scale" values="1;1.015;1" keyTimes="0;0.5;1" begin="0.8s" dur="3.5s" repeatCount="2" calcMode="spline" keySplines="0.42 0 0.58 1;0.42 0 0.58 1"/>
        <animate attributeName="opacity" values="1;0.95;1" keyTimes="0;0.5;1" begin="0.8s" dur="3.5s" repeatCount="2" calcMode="spline" keySplines="0.42 0 0.58 1;0.42 0 0.58 1"/>
        <g opacity="0">
          <animate attributeName="opacity" from="0" to="1" begin="0.15s" dur="0.4s" calcMode="spline" keySplines="0.25 0.46 0.45 0.94" fill="freeze"/>
          <path transform="translate(-18.21 -19.75)" fill="#63bfd1" fill-opacity="0.08" d="m31.1,12.16l-2.91-7.6-1.77,4.62-5.3-1.59-2.91-7.6-2.91,7.6-5.3,1.59-1.77-4.62-2.91,7.6-5.32,1.6,5.32,1.6,2.91,10.95.5-1.88,5.95,1.79,3.53,13.27,3.53-13.27,5.95-1.79.5,1.88,2.91-10.95,5.32-1.6-5.32-1.6Zm-4.69-2.96l-1.13,2.96-4.91,1.48.76-2.84,5.29-1.59Zm-11.11,1.59l.76,2.84-4.91-1.48-1.13-2.96,5.29,1.59Zm-6.48,13.31l2.32-8.74,4.97-1.5.74,2.79-2.18,5.68-5.86,1.76Zm12.92-1.76l-2.18-5.68.74-2.79,4.97,1.5,2.32,8.74-5.86,1.76Z"/>
        </g>
      </g>
    </g>
  </g>
</svg>
