<svg xmlns="http://www.w3.org/2000/svg" viewBox="0 0 35.5 35.07">
  <!-- 领域纹章·工业 INDUSTRIAL:几何源自 docs/pbdh/粥/图标PNG及SVG/资源 12.svg;SMIL 内置入场淡入+有限循环×2(依领域图标动画规范,循环不用 infinite)。轮齿保留原 SVG transform(动画不作用于它们,无冲突)。 -->
  <g>
    <animateTransform attributeName="transform" type="translate" values="0 0;0 -0.8;0 0" keyTimes="0;0.5;1" begin="0.8s" dur="3.5s" repeatCount="2" calcMode="spline" keySplines="0.42 0 0.58 1;0.42 0 0.58 1"/>
    <animate attributeName="opacity" values="1;0.95;1" keyTimes="0;0.5;1" begin="0.8s" dur="3.5s" repeatCount="2" calcMode="spline" keySplines="0.42 0 0.58 1;0.42 0 0.58 1"/>
    <g opacity="0">
      <animate attributeName="opacity" from="0" to="1" begin="0.15s" dur="0.4s" calcMode="spline" keySplines="0.25 0.46 0.45 0.94" fill="freeze"/>
      <g fill="#63bfd1" opacity="0.08">
        <path d="m17.75,3.64l-13.61,7.86v15.71s13.61,7.86,13.61,7.86l13.61-7.86v-15.71s-13.61-7.86-13.61-7.86Zm10.4,21.82l-10.31,5.95-10.31-5.95v-11.9s10.31-5.95,10.31-5.95l10.31,5.95v11.9Z"/>
        <polygon points="17.84 13.19 12.37 16.35 12.37 22.67 17.84 25.83 23.31 22.67 23.31 16.35 17.84 13.19"/>
        <rect x="16.15" width="3.38" height="7.61"/>
        <rect x="29.67" y="23.62" width="3.38" height="7.61" transform="translate(70.78 13.97) rotate(120)"/>
        <rect x="2.45" y="23.62" width="3.38" height="7.61" transform="translate(-17.54 44.71) rotate(-120)"/>
      </g>
    </g>
  </g>
</svg>
