<svg xmlns="http://www.w3.org/2000/svg" viewBox="0 0 50.44 43.47">
  <!-- 领域纹章·远见 FORESIGHT:几何源自 docs/pbdh/粥/图标PNG及SVG/资源 4.svg;SMIL 内置入场淡入+有限循环×2(依领域图标动画规范,循环不用 infinite)。 -->
  <g>
    <animateTransform attributeName="transform" type="translate" values="0 0;0 -0.8;0 0" keyTimes="0;0.5;1" begin="0.8s" dur="3.5s" repeatCount="2" calcMode="spline" keySplines="0.42 0 0.58 1;0.42 0 0.58 1"/>
    <animate attributeName="opacity" values="1;0.95;1" keyTimes="0;0.5;1" begin="0.8s" dur="3.5s" repeatCount="2" calcMode="spline" keySplines="0.42 0 0.58 1;0.42 0 0.58 1"/>
    <g opacity="0">
      <animate attributeName="opacity" from="0" to="1" begin="0.15s" dur="0.4s" calcMode="spline" keySplines="0.25 0.46 0.45 0.94" fill="freeze"/>
      <g fill="#63bfd1" opacity="0.08">
        <polygon points="10.52 0 20.91 37.8 0 23.78 10.99 26.33 10.52 0"/>
        <polygon points="39.92 0 29.53 37.8 50.44 23.78 39.45 26.33 39.92 0"/>
        <polygon points="19.74 25.64 22.28 21.23 25.22 16.15 28.16 21.23 30.7 25.64 31.81 21.52 29.2 16.37 31.41 12.16 25.22 12.16 19.03 12.16 21.24 16.37 18.63 21.52 19.74 25.64"/>
        <polygon points="25.22 27.51 20.91 27.51 21.51 29.73 25.22 43.47 28.93 29.73 29.53 27.51 25.22 27.51"/>
        <polygon points="25.22 20.05 27.37 23.78 29.53 27.51 25.22 27.51 20.91 27.51 23.06 23.78 25.22 20.05"/>
      </g>
    </g>
  </g>
</svg>
